<svg width="27" height="29" viewBox="0 0 27 29" fill="none" xmlns="http://www.w3.org/2000/svg">
<path d="M15.3955 11.8375V10.17L16.2111 10.0487L19.6782 0H22.7123L26.1866 10.0487L27 10.17V11.8375H22.6555V10.17L23.4165 10.025L23.0647 8.74216H19.3264L18.9913 10.025L19.7495 10.17V11.8375H15.3955ZM9.67378 7.05254H7.36514V28.5983C7.36514 28.7989 7.17029 29 6.97044 29H3.57957C3.37693 29 3.17986 28.8204 3.17986 28.5983V7.05254H0.873446C0.670807 7.05254 0.466497 6.98228 0.30227 6.83496C-0.0634821 6.51313 -0.101894 5.94879 0.212085 5.5788L4.72804 0.304834C5.08712 -0.099156 5.71229 -0.104255 6.0619 0.321832L10.3234 5.5618C10.466 5.72158 10.5489 5.93463 10.5489 6.16183C10.5489 6.65818 10.1592 7.05254 9.67378 7.05254ZM19.9182 6.74034H22.4651L21.3311 3.15599L21.2025 2.74237H21.1552L21.0193 3.19735L19.9182 6.74034ZM16.7439 28.9904V27.209L22.1823 19.3382H19.2479L19.0408 20.8431H16.941L17.0913 17.1523H25.704V18.8708L20.2489 26.8118H23.7372L23.9609 25.4055H26.0558L25.8253 28.9904H16.7439Z" fill="#2B2B2B"/>
</svg>
