<svg width="27" height="29" viewBox="0 0 27 29" fill="none" xmlns="http://www.w3.org/2000/svg">
<path d="M16.7472 11.8386V10.057L22.184 2.18577H19.2507L19.0436 3.69132H16.9448L17.0946 0H25.7045V1.71869L20.2511 9.66024H23.7388L23.9621 8.25389H26.0564L25.8259 11.8386H16.7472ZM9.67044 21.949H7.36235V0.401896C7.36235 0.200665 7.16751 0 6.96765 0H3.5779C3.37582 0 3.17874 0.179124 3.17874 0.401896V21.949H0.872889C0.670807 21.949 0.466497 22.0187 0.30227 22.1666C-0.0634821 22.4886 -0.101894 23.0526 0.212085 23.4228L4.72637 28.6967C5.08545 29.1015 5.71062 29.106 6.05967 28.6803L10.3195 23.4398C10.4621 23.2799 10.5456 23.0668 10.5456 22.8395C10.5456 22.3435 10.1559 21.949 9.67044 21.949ZM15.3994 28.9921V27.3244L16.215 27.2037L19.681 17.154H22.7139L26.1872 27.2037L27 27.3244V28.9921H22.6572V27.3244L23.4176 27.1793L23.0658 25.8965H19.3292L18.9941 27.1793L19.7523 27.3244V28.9921H15.3994ZM19.921 23.895H22.4668L21.3328 20.3102L21.2047 19.8964H21.1568L21.0216 20.351L19.921 23.895Z" fill="#2B2B2B"/>
</svg>
