<svg width="336" height="195" viewBox="0 0 336 195" fill="none" xmlns="http://www.w3.org/2000/svg">
<rect x="3" y="2.5" width="330" height="190" rx="7.5" stroke="#2B2B2B" stroke-width="5"/>
<path d="M183.469 82.0312H152.531C151.785 82.0312 151.07 82.3276 150.543 82.855C150.015 83.3825 149.719 84.0978 149.719 84.8438V110.156C149.719 110.902 150.015 111.618 150.543 112.145C151.07 112.672 151.785 112.969 152.531 112.969H183.469C184.215 112.969 184.93 112.672 185.457 112.145C185.985 111.618 186.281 110.902 186.281 110.156V84.8438C186.281 84.0978 185.985 83.3825 185.457 82.855C184.93 82.3276 184.215 82.0312 183.469 82.0312ZM172.922 90.4688C173.339 90.4688 173.747 90.5925 174.094 90.8242C174.441 91.056 174.711 91.3855 174.871 91.7709C175.03 92.1563 175.072 92.5805 174.991 92.9896C174.909 93.3988 174.708 93.7747 174.413 94.0697C174.118 94.3647 173.743 94.5656 173.333 94.647C172.924 94.7284 172.5 94.6866 172.115 94.5269C171.729 94.3673 171.4 94.0969 171.168 93.75C170.936 93.4031 170.812 92.9953 170.812 92.5781C170.812 92.0187 171.035 91.4822 171.43 91.0866C171.826 90.691 172.362 90.4688 172.922 90.4688ZM183.469 110.156H152.531V103.246L160.677 95.0988C160.808 94.9681 160.963 94.8644 161.133 94.7936C161.304 94.7228 161.487 94.6864 161.672 94.6864C161.857 94.6864 162.04 94.7228 162.21 94.7936C162.381 94.8644 162.536 94.9681 162.667 95.0988L174.504 106.932C174.768 107.196 175.126 107.345 175.499 107.345C175.872 107.345 176.23 107.196 176.494 106.932C176.758 106.669 176.906 106.311 176.906 105.938C176.906 105.564 176.758 105.206 176.494 104.943L173.389 101.84L175.91 99.3176C176.174 99.0541 176.531 98.906 176.904 98.906C177.277 98.906 177.635 99.0541 177.898 99.3176L183.469 104.895V110.156Z" fill="#2B2B2B"/>
</svg>
